<?xml version="1.0" ?><svg fill="none" height="24" viewBox="0 0 24 24" width="24" xmlns="http://www.w3.org/2000/svg"><g clip-path="url(#clip0_14_6)"><path d="M11.695 14.8834C11.4563 14.6678 10.5058 13.7308 10.2625 13.4874C10.0192 13.2441 9.08217 12.2937 8.86656 12.055M11.695 14.8834C12.5367 15.6437 13.5451 16.2259 14.2659 16.5896C14.8485 16.8836 15.5356 16.8074 16.0786 16.4454L17.3336 15.6088L14.5052 13.4874L11.695 14.8834ZM8.86656 12.055C8.10633 11.2133 7.52411 10.2049 7.16034 9.48408C6.86633 8.9015 6.94257 8.21434 7.30455 7.67137L8.1412 6.41638L10.2625 9.24481L8.86656 12.055ZM23 12C23 18.0751 18.0751 23 12 23C9.78641 23 7.72554 22.3462 5.99999 21.2211L0.999969 23L2.99999 18.3262C1.73993 16.5368 0.999986 14.3548 0.999986 12C0.999986 5.92487 5.92485 1 12 1C18.0751 1 23 5.92487 23 12Z" stroke="black" stroke-linecap="round" stroke-linejoin="round" stroke-width="2"/></g><defs><clipPath id="clip0_14_6"><rect fill="white" height="24" width="24"/></clipPath></defs></svg>